<svg width="479" height="756" viewBox="0 0 479 756" fill="none" xmlns="http://www.w3.org/2000/svg">
<path d="M457.1 16.8C403.5 16.8 350.7 16.8 297.6 16.8C297.6 131.1 297.6 245.3 297.6 359.8C323.5 359.8 349.5 359.8 375.8 359.8C375.8 318.2 375.8 276.9 375.8 235.3C382.3 235.3 388.5 235.3 395.1 235.3C395.1 324.9 395.1 414.6 395.1 504.7C389 504.7 382.8 504.7 376 504.7C376 463.6 376 422.4 376 380.8C349.6 380.8 323.8 380.8 297.6 380.8C297.6 501 297.6 621.4 297.6 742C350.3 742 402.9 742 455.9 742C455.9 664.4 455.9 586.8 455.9 508.9C463.7 508.9 471.2 508.9 478.9 508.9C478.9 591.1 478.9 673.3 478.9 755.7C376.9 755.7 275.1 755.7 172.8 755.7C172.8 630.7 172.8 505.6 172.8 380.2C160.3 380.2 148.2 380.2 135.6 380.2C135.6 505.3 135.6 630.4 135.6 755.7C113.5 755.7 91.9 755.7 69.8 755.7C69.8 630.5 69.8 505.4 69.8 380.1C52.7 380.1 36 380.1 18.8 380.1C18.8 424.2 18.8 468.4 18.8 512.9C12.3 512.9 6.3 512.9 0 512.9C0 461.9 0 410.9 0 359.6C57.3 359.6 114.7 359.6 172.5 359.6C172.5 239.6 172.5 119.9 172.5 0C274.7 0 376.5 0 478.7 0C478.7 77.3 478.7 154.6 478.7 232.2C471.7 232.2 464.7 232.2 457.1 232.2C457.1 160.4 457.1 88.8 457.1 16.8Z" fill="white"/>
</svg>
